<?xml version="1.0" encoding="UTF-8"?>
<svg xmlns="http://www.w3.org/2000/svg" version="1.1" viewBox="0 0 812.25 377.66">
  <!-- Generator: Adobe Illustrator 30.6.0, SVG Export Plug-In . SVG Version: 2.1.4 Build 109)  -->
  <defs>
    <style>
      .st0 {
        fill: #ed1c24;
      }

      .st0, .st1, .st2, .st3, .st4, .st5 {
        isolation: isolate;
      }

      .st0, .st2, .st3, .st4, .st5 {
        mix-blend-mode: overlay;
      }

      .st2 {
        fill: #e8bb00;
      }

      .st3 {
        fill: #ff9831;
      }

      .st4 {
        fill: #be1e2d;
      }

      .st5 {
        fill: #ec008c;
      }
    </style>
  </defs>
  <g class="st1">
    <g id="Layer_1">
      <path class="st4" d="M301.63,141.92h-20.1v20.25h-20.24v20.09H119.37V0h141.92v20.08h20.24v20.25h20.1v101.59ZM240.39,141.08V41.08h-20.25v-20.18h-39.53v140.46h39.53v-20.28h20.25Z"/>
      <path class="st2" d="M418.88,182.26h-20.9v-20.09h-19.45v20.09h-101.57v-20.09h-20.09v-41.15h20.09v-20.09h80.68v-19.28h-20.11v-20.25h-60.57v-20.9h121.83v20.09h20.09v121.67ZM357.64,161.36v-39.53h-39.53v39.53h39.53Z"/>
      <path class="st5" d="M548.13,141.92h-20.09v20.25h-40.34v20.09h-41.17v-20.09h-40.32v-20.25h-20.09V40.5h61.24v100.58h39.53V40.5h61.24v101.42Z"/>
      <path class="st3" d="M591.13,20.9h-60.76V0h60.76v20.9ZM591.13,182.26h-60.76V40.34h60.76v141.92Z"/>
      <path class="st0" d="M737.38,182.26h-20.85v-20.09h-19.49v20.09h-101.58v-20.09h-20.09V60.43h20.09v-20.09h80.68V0h61.24v182.26ZM676.14,161.36V61.24h-39.53v100.12h39.53Z"/>
      <path class="st3" d="M182.25,377.66h-20.9v-20.09h-19.44v20.09H20.09v-20.09H0v-142.08h20.09v-20.09h142.07v20.09h20.09v41.15h-61.23v-40.34h-59.78v140.46h59.78v-59.78h-20.25v-20.9h81.48v101.58Z"/>
      <path class="st4" d="M255.25,377.66h-60.72v-182.26h60.75l-.03,182.26Z"/>
      <path class="st2" d="M396.53,377.66h-20.9v-20.09h-19.47v20.09h-101.57v-20.09h-20.06v-41.15h20.09v-20.09h80.68v-19.25h-20.12v-20.28h-60.59v-20.9h121.82v20.09h20.12v121.67ZM335.3,356.76v-39.53h-39.56v39.53h39.56Z"/>
      <path class="st5" d="M518.75,377.66h-162v-41.15h20.09v-20.09h20.25v-20.09h20.09v-20.09h20.25v-19.44h-80.68v-20.9h162v41.18h-20.09v20.09h-20.25v20.09h-20.08v20.09h-20.25v19.44h80.67v20.87Z"/>
      <path class="st3" d="M548.75,216.3h-60.75v-20.9h60.75v20.9ZM548.75,377.66h-60.75v-141.92h60.75v141.92Z"/>
      <path class="st0" d="M697.25,357.57h-20.08v20.09h-121.83v-20.09h-20.25v-20.25h-20.09v-61.08h20.09v-20.25h20.25v-20.09h101.57v20.09h20.26v20.25h20.08v41h-121v19.28h20.28v20.25h39.53v-20.26h61.23l-.04,21.06ZM636.02,296.33v-19.25h-20.25v-20.28h-19.24v20.28h-20.29v19.28l59.78-.03Z"/>
      <path class="st3" d="M812.25,297.14h-61.23v-40.34h-19.28v120.86h-61.21v-141.76h121.63v20.09h20.09v41.15Z"/>
    </g>
  </g>
</svg>