<?xml version="1.0" encoding="UTF-8"?>
<svg data-bbox="0 0 973.22 618.68" viewBox="0 0 973.22 618.65" xmlns="http://www.w3.org/2000/svg" data-type="color">
    <g>
        <g>
            <path d="M368.16 162.72q0 37.51-17.13 67.17t-43.28 45.53A132.43 132.43 0 0 1 264.66 292q-23.45 4.69-55.54 4.69h-94.67V28.21h97.38q32.8 0 56.62 5.5t40 15.6A121.79 121.79 0 0 1 352.2 95q15.96 28.78 15.96 67.72Zm-71.58-.54q0-26.51-9.65-45.35t-30.57-29.48a79.45 79.45 0 0 0-21.72-7.12q-11.1-1.89-33.45-1.89H183.7v168h17.49q24.69 0 36.24-2.25a79.2 79.2 0 0 0 22.54-8.2q18.93-10.78 27.77-28.89t8.84-44.82Z" style="mix-blend-mode:overlay" fill="#be1e2d" data-color="1"/>
            <path d="M687.12 58.21h-68.7V9h68.7Zm-1.8 231.35h-65.09V87.06h65.09Z" style="mix-blend-mode:overlay" fill="#ff9831" data-color="2"/>
            <path d="m655.56 87.06-78.08 202.5h-73.57l-77.53-202.5h68.54l47 139.38 46.4-139.38Z" style="mix-blend-mode:overlay" fill="#ec008c" data-color="3"/>
            <path d="M431.11 261q-5.24 4-13 9.56a95.08 95.08 0 0 1-14.6 8.83 91.9 91.9 0 0 1-19.84 6.4 114.31 114.31 0 0 1-22.54 2.08q-28.84 0-48.32-17.86t-19.48-45.62q0-22.17 9.92-36.24t28.13-22.18q18-8.12 44.72-11.54t55.36-5v-1.08q0-16.77-13.71-23.17t-40.39-6.4a115.18 115.18 0 0 0-34.26 5.68q-18.2 5.54-26.1 8.65h-6V84.24q10.28-2.7 33.45-6.4a294.86 294.86 0 0 1 46.43-3.69q55.37 0 80 17t24.61 53.46v137.81h-64.38Zm0-31.51v-42.1q-13.17 1.08-28.5 3t-23.25 4.4q-9.75 3.06-14.88 8.9T359.34 219a40 40 0 0 0 1.08 10.25q1.08 4 5.41 7.55a26.45 26.45 0 0 0 9.92 5.3q5.76 1.71 18 1.71a53.37 53.37 0 0 0 19.74-4 61.61 61.61 0 0 0 17.62-10.36Z" style="mix-blend-mode:overlay" fill="#e8bb00" data-color="4"/>
            <path d="M851.48 280.58h-65.09v-21.1q-16.75 13.71-31.34 20.19t-33.68 6.5q-36.92 0-59.07-28.49t-22.15-76.82q0-25.79 7.47-45.71A104.63 104.63 0 0 1 668.07 101a84.18 84.18 0 0 1 29.71-21 88.09 88.09 0 0 1 34.94-7.48q18.18 0 29.81 3.87a199.66 199.66 0 0 1 23.86 9.83V0h65.09Zm-65.09-55.74v-99.51a63.56 63.56 0 0 0-14.39-4.15 83.82 83.82 0 0 0-13.86-1.27q-25.54 0-38.32 16t-12.77 44.34q0 29.81 10.25 43.26t32.93 13.45a58.53 58.53 0 0 0 18.71-3.34 66.19 66.19 0 0 0 17.45-8.78Z" style="mix-blend-mode:overlay" fill="#ed1c24" data-color="5"/>
            <path d="M253.17 597.74q-18 7-47.79 14a260.19 260.19 0 0 1-59.32 6.94q-68.52 0-107.29-37.23T0 478.55Q0 416 39.13 377.66t109.09-38.32a258.43 258.43 0 0 1 50.49 4.78q24 4.78 53.37 19v62.94h-7.75q-5.06-3.79-14.79-10.73a177.76 177.76 0 0 0-18.75-11.81 122.65 122.65 0 0 0-24.43-9.92 103.61 103.61 0 0 0-29.66-4.15 97.44 97.44 0 0 0-33.36 5.41 77.33 77.33 0 0 0-26.87 16.59Q85.12 422.29 78.53 439T72 477.47q0 44.53 23.57 68.16t69.78 23.62q4 0 8.75-.18c3.18-.12 6.1-.3 8.74-.54v-52.66h-53.55V465.2h123.88Z" style="mix-blend-mode:overlay" fill="#ff9831" data-color="2"/>
            <path d="M380.3 604.14H230.65V396.66h53.51V564h96.14Z" style="mix-blend-mode:overlay" fill="#be1e2d" data-color="1"/>
            <path d="M698.61 375.17h-68.7v-49.23h68.7Zm-1.8 231.35h-65.09V404h65.09Z" style="mix-blend-mode:overlay" fill="#ff9831" data-color="2"/>
            <path d="M864.54 514.88H716q1.44 23.8 18.12 36.42t49.14 12.62a110.44 110.44 0 0 0 39.85-7.39q19.29-7.38 30.47-15.86h7.22v52.11a240.94 240.94 0 0 1-41.48 12.8 216.7 216.7 0 0 1-43.09 4q-61 0-93.41-27.41t-32.46-78.08q0-50.13 30.75-79.43t84.3-29.3q49.39 0 74.29 25t24.88 71.86ZM800 476.83q-.54-20.37-10.1-30.65t-29.76-10.28q-18.76 0-30.84 9.74t-13.52 31.19Z" style="mix-blend-mode:overlay" fill="#ed1c24" data-color="5"/>
            <path d="M973.22 467.65h-5.75q-4.14-1.44-13.32-2.16t-15.29-.72a147.74 147.74 0 0 0-24.47 1.8 139.62 139.62 0 0 0-22.85 6.13v135.6h-65.1V405.8h65.1v29.76q21.4-18.39 37.24-24.43t29.15-6q3.42 0 7.74.17t7.55.54Z" style="mix-blend-mode:overlay" fill="#ff9831" data-color="2"/>
            <path d="M651 605.92H460.71v-41.65l106.61-113.42H465v-47.43h184v40.94L544 557.6h107Z" style="mix-blend-mode:overlay" fill="#ec008c" data-color="3"/>
            <path d="M453.92 582.68q-5.24 4-13 9.56a95.08 95.08 0 0 1-14.6 8.83 91.9 91.9 0 0 1-19.84 6.4 114.31 114.31 0 0 1-22.48 2.08q-28.84 0-48.32-17.86t-19.48-45.62q0-22.17 9.92-36.24t28.13-22.18q18-8.11 44.72-11.54t55.36-5.05V470q0-16.77-13.71-23.17t-40.39-6.4a115.18 115.18 0 0 0-34.26 5.68q-18.21 5.67-26.15 8.74h-5.95V406q10.28-2.72 33.45-6.4a293.69 293.69 0 0 1 46.43-3.7q55.37 0 80 17t24.61 53.46v137.78h-64.44Zm0-31.51v-42.06q-13.17 1.08-28.5 3t-23.25 4.4q-9.75 3.06-14.88 8.9t-5.14 15.36a40 40 0 0 0 1.08 10.23q1.08 4 5.41 7.55a26.31 26.31 0 0 0 9.92 5.3q5.76 1.71 18 1.71a53.55 53.55 0 0 0 19.74-3.95 61.87 61.87 0 0 0 17.62-10.44Z" style="mix-blend-mode:overlay" fill="#e8bb00" data-color="4"/>
        </g>
    </g>
</svg>
